 <svg  version="1.0" xmlns="http://www.w3.org/2000/svg"  width="224.000000pt" height="225.000000pt" viewBox="0 0 224.000000 225.000000"  preserveAspectRatio="xMidYMid meet">  <g transform="translate(0.000000,225.000000) scale(0.100000,-0.100000)" fill="#000000" stroke="none"> <path d="M610 1137 l0 -397 85 0 85 0 2 202 3 202 135 -119 c74 -65 147 -129 162 -143 l26 -24 160 141 c88 78 161 141 163 141 2 0 3 -90 1 -200 l-3 -200 91 0 90 0 0 396 c0 313 -3 394 -12 388 -7 -5 -120 -102 -251 -217 -216 -190 -239 -208 -255 -195 -19 16 -424 370 -459 401 l-23 20 0 -396z"/> </g> </svg> 